<svg width="27" height="16" viewBox="0 0 27 16" fill="none" xmlns="http://www.w3.org/2000/svg">
<path d="M7.52024 5.78667C7.52024 6.12 7.54691 6.38667 7.61357 6.61333C7.68024 6.77333 7.77358 6.98667 7.89358 7.22667C7.94691 7.28 7.96024 7.36 7.96024 7.42667C7.96024 7.52 7.90691 7.6 7.78691 7.69333L7.22691 8.06667C7.14691 8.12 7.06691 8.14667 7.00024 8.14667C6.90691 8.14667 6.82691 8.09333 6.73358 8.01333C6.61358 7.88 6.50691 7.74667 6.41358 7.6C6.33358 7.45333 6.24024 7.28 6.14691 7.08C5.45358 7.89333 4.58691 8.30667 3.53357 8.30667C2.78691 8.30667 2.20024 8.09333 1.76024 7.66667C1.33357 7.24 1.10691 6.66667 1.10691 5.94667C1.10691 5.21333 1.37357 4.61333 1.90691 4.13333C2.45357 3.68 3.17357 3.44 4.08024 3.44C4.38691 3.44 4.66691 3.46667 5.02691 3.52C5.33357 3.56 5.69358 3.62667 6.04024 3.70667V3.06667C6.04024 2.38667 5.90691 1.94667 5.62691 1.64C5.33357 1.36 4.86691 1.24 4.18691 1.24C3.86691 1.24 3.54691 1.28 3.22691 1.34667C2.89357 1.42667 2.57357 1.52 2.26691 1.65333C2.12024 1.70667 2.00024 1.74667 1.96024 1.76C1.89357 1.78667 1.85357 1.78667 1.81357 1.78667C1.69357 1.78667 1.62691 1.70667 1.62691 1.52V1.08C1.62691 0.946667 1.64024 0.84 1.69357 0.773333C1.73357 0.706667 1.81357 0.653333 1.93357 0.613333C2.25357 0.426667 2.61357 0.293333 3.05357 0.186666C3.50619 0.0683202 3.97242 0.0100427 4.44024 0.0133336C5.49357 0.0133336 6.26691 0.253334 6.76024 0.733334C7.25358 1.21333 7.49358 1.94667 7.49358 2.92V5.78667H7.52024ZM3.92024 7.14667C4.21357 7.14667 4.50691 7.09333 4.82691 6.98667C5.14691 6.88 5.42691 6.68 5.66691 6.41333C5.81358 6.24 5.92024 6.05333 6.00024 5.84C6.00024 5.62667 6.06691 5.37333 6.06691 5.06667V4.70667C5.80024 4.61333 5.53357 4.61333 5.24024 4.54667C4.96561 4.51666 4.68978 4.49887 4.41357 4.49333C3.81357 4.49333 3.38691 4.61333 3.09358 4.85333C2.80024 5.09333 2.66691 5.42667 2.66691 5.86667C2.66691 6.29333 2.76024 6.61333 2.98691 6.81333C3.20024 7.04 3.50691 7.14667 3.92024 7.14667ZM11.0402 8.09333C10.9112 8.09719 10.7831 8.06974 10.6669 8.01333C10.6269 7.94667 10.5602 7.82667 10.5069 7.66667L8.42691 0.813334C8.37358 0.613334 8.34691 0.52 8.34691 0.453334C8.34691 0.306667 8.41358 0.226667 8.56024 0.226667H9.42691C9.60024 0.226667 9.72024 0.253334 9.77357 0.32C9.85357 0.373334 9.90691 0.493333 9.96024 0.666667L11.4402 6.53333L12.8269 0.666667C12.8669 0.493333 12.9202 0.373334 13.0002 0.32C13.0669 0.266667 13.1869 0.226667 13.3336 0.226667H14.0669C14.2269 0.226667 14.3469 0.253334 14.4136 0.32C14.4802 0.373334 14.5469 0.493333 14.5869 0.666667L16.0002 6.61333L17.5202 0.666667C17.5736 0.493333 17.6402 0.373334 17.6936 0.32C17.7736 0.266667 17.8802 0.226667 18.0402 0.226667H18.8669C19.0136 0.226667 19.0936 0.306667 19.0936 0.453334C19.0936 0.493334 19.0802 0.546667 19.0669 0.613333C19.0669 0.613333 19.0402 0.72 19.0136 0.813334L16.8669 7.66667C16.8136 7.85333 16.7602 7.94667 16.6669 8.01333C16.6136 8.06667 16.4936 8.10667 16.3469 8.10667H15.5869C15.4136 8.10667 15.3336 8.08 15.2269 8.01333C15.1373 7.91828 15.0811 7.79656 15.0669 7.66667L13.6936 1.94667L12.3202 7.65333C12.2802 7.82667 12.2269 7.94667 12.1602 8.01333C12.0502 8.07332 11.9254 8.10105 11.8002 8.09333H11.0402ZM22.4402 8.33333C22.0002 8.33333 21.5069 8.28 21.0669 8.17333C20.6269 8.06667 20.2802 7.94667 20.0536 7.82667C19.9378 7.77097 19.8405 7.683 19.7736 7.57333C19.7374 7.49858 19.7191 7.4164 19.7202 7.33333V6.88C19.7202 6.69333 19.7869 6.61333 19.9202 6.61333H20.0802C20.1336 6.61333 20.2136 6.68 20.3069 6.72C20.6002 6.85333 20.9336 6.96 21.2802 7.02667C21.6402 7.09333 22.0002 7.13333 22.3336 7.13333C22.8936 7.13333 23.3336 7.04 23.6269 6.84C23.9336 6.61333 24.0936 6.36 24.0936 6C24.0936 5.74667 24.0002 5.54667 23.8536 5.37333C23.6936 5.21333 23.3869 5.05333 22.9602 4.92L21.6669 4.52C21.0269 4.30667 20.5469 4.01333 20.2536 3.61333C19.9673 3.24307 19.8125 2.78802 19.8136 2.32C19.8136 1.94667 19.8936 1.62667 20.0536 1.34667C20.2136 1.05333 20.4269 0.813333 20.6669 0.613333C20.9602 0.413333 21.2536 0.266667 21.6136 0.16C21.9602 0.0533332 22.3336 0 22.7336 0C22.9202 0 23.1202 0.0133336 23.3336 0.0400003C23.5202 0.0666669 23.7069 0.106667 23.8936 0.133333C24.0802 0.186667 24.2402 0.226667 24.4002 0.28C24.5602 0.333333 24.6669 0.386667 24.7736 0.44C24.8936 0.506667 24.9869 0.573334 25.0402 0.653334C25.0936 0.733334 25.1202 0.826667 25.1202 0.946667V1.37333C25.1202 1.56 25.0536 1.65333 24.9202 1.65333C24.8536 1.65333 24.7336 1.61333 24.5736 1.54667C24.0802 1.32 23.5069 1.2 22.8802 1.2C22.3736 1.2 22.0002 1.28 21.6936 1.45333C21.4269 1.61333 21.2802 1.88 21.2802 2.24C21.2802 2.49333 21.3736 2.70667 21.5469 2.86667C21.7202 3.04 22.0536 3.2 22.5202 3.36L23.7869 3.76C24.4269 3.94667 24.8802 4.24 25.1602 4.61333C25.4269 4.97333 25.5602 5.38667 25.5602 5.85333C25.5602 6.22667 25.4802 6.57333 25.3336 6.88C25.1736 7.17333 24.9602 7.44 24.6669 7.65333C24.4136 7.88 24.0802 8.04 23.7069 8.16C23.3336 8.28 22.8802 8.33333 22.4402 8.33333ZM24.1069 12.6533C21.1869 14.8 16.9469 15.9467 13.3336 15.9467C8.20024 15.9467 3.60024 14.0533 0.120241 10.92C-0.159759 10.6667 0.0935746 10.3333 0.426908 10.5333C4.18691 12.7067 8.81358 14.0267 13.6136 14.0267C16.8536 14.0267 20.4136 13.36 23.6802 11.9467C24.1736 11.7467 24.5869 12.2933 24.1069 12.6533ZM25.3336 11.28C24.9469 10.7867 22.8536 11.04 21.9069 11.1467C21.6269 11.1867 21.5869 10.9333 21.8402 10.7467C23.5069 9.58667 26.2536 9.94667 26.5602 10.3067C26.8802 10.7067 26.4802 13.4533 24.9202 14.76C24.6669 14.96 24.4402 14.8533 24.5469 14.6133C24.9069 13.7067 25.6936 11.7333 25.3336 11.28Z" fill="#FAFAFA"/>
</svg>
